<svg width="13" height="12" viewBox="0 0 13 12" fill="none" xmlns="http://www.w3.org/2000/svg">
<path d="M11.6071 0H1.39286C0.623884 0 0 0.575893 0 1.28571V10.7143C0 11.4241 0.623884 12 1.39286 12H11.6071C12.3761 12 13 11.4241 13 10.7143V1.28571C13 0.575893 12.3761 0 11.6071 0ZM8.04665 10.2777C7.8029 10.3179 7.71295 10.1786 7.71295 10.0634C7.71295 9.91875 7.71875 9.17946 7.71875 8.58214C7.71875 8.16429 7.56786 7.89911 7.39085 7.75982C8.46451 7.65 9.59621 7.51339 9.59621 5.80179C9.59621 5.31429 9.40759 5.07054 9.1 4.75714C9.14933 4.64196 9.31473 4.16786 9.05067 3.55179C8.64732 3.43661 7.72455 4.03125 7.72455 4.03125C7.34152 3.93214 6.92656 3.88125 6.51741 3.88125C6.10826 3.88125 5.6933 3.93214 5.31027 4.03125C5.31027 4.03125 4.3875 3.43661 3.98415 3.55179C3.72009 4.16518 3.88259 4.63929 3.93482 4.75714C3.62723 5.07054 3.48214 5.31429 3.48214 5.80179C3.48214 7.50536 4.56451 7.65 5.63817 7.75982C5.49888 7.875 5.37411 8.07321 5.33058 8.35714C5.05491 8.47232 4.34978 8.67054 3.92902 7.98482C3.66496 7.56161 3.18906 7.52679 3.18906 7.52679C2.71897 7.52143 3.15714 7.8 3.15714 7.8C3.47054 7.93393 3.69107 8.44821 3.69107 8.44821C3.97254 9.24375 5.31897 8.97589 5.31897 8.97589C5.31897 9.34821 5.32478 9.95357 5.32478 10.0634C5.32478 10.1786 5.23772 10.3179 4.99107 10.2777C3.07589 9.68571 1.73527 8.00357 1.73527 6.0375C1.73527 3.57857 3.77232 1.71161 6.43616 1.71161C9.1 1.71161 11.2589 3.57857 11.2589 6.0375C11.2618 8.00357 9.96183 9.68839 8.04665 10.2777ZM5.2 8.64107C5.14487 8.65179 5.09263 8.63036 5.08683 8.59554C5.08103 8.55536 5.11875 8.52054 5.17388 8.50982C5.22902 8.50447 5.28125 8.52589 5.28705 8.56071C5.29576 8.59554 5.25804 8.63036 5.2 8.64107ZM4.92433 8.61696C4.92433 8.65179 4.8808 8.68125 4.82277 8.68125C4.75893 8.68661 4.7154 8.65714 4.7154 8.61696C4.7154 8.58214 4.75893 8.55268 4.81696 8.55268C4.8721 8.54732 4.92433 8.57679 4.92433 8.61696ZM4.52679 8.5875C4.51518 8.62232 4.45714 8.63839 4.40781 8.62232C4.35268 8.61161 4.31496 8.57143 4.32656 8.53661C4.33817 8.50179 4.3962 8.48571 4.44554 8.49643C4.50357 8.5125 4.54129 8.55268 4.52679 8.5875ZM4.16987 8.44286C4.14375 8.47232 4.08862 8.46696 4.04509 8.42679C4.00156 8.39196 3.98996 8.34107 4.01897 8.31696C4.04509 8.2875 4.10022 8.29286 4.14375 8.33304C4.18147 8.36786 4.19598 8.42143 4.16987 8.44286ZM3.9058 8.19911C3.87969 8.21518 3.83036 8.19911 3.79844 8.15893C3.76652 8.11875 3.76652 8.07321 3.79844 8.05446C3.83036 8.03036 3.87969 8.04911 3.9058 8.08929C3.93772 8.12946 3.93772 8.17768 3.9058 8.19911ZM3.71719 7.93929C3.69107 7.96339 3.64754 7.95 3.61562 7.92321C3.58371 7.88839 3.5779 7.84821 3.60402 7.82946C3.63013 7.80536 3.67366 7.81875 3.70558 7.84554C3.7375 7.88036 3.7433 7.92054 3.71719 7.93929ZM3.52277 7.74107C3.51116 7.76518 3.47344 7.77054 3.44152 7.75179C3.40379 7.73571 3.38638 7.70625 3.39799 7.68214C3.4096 7.66607 3.44152 7.65804 3.47924 7.67143C3.51696 7.69018 3.53437 7.71964 3.52277 7.74107Z" fill="white"/>
</svg>
