<svg width="1395" height="562" viewBox="0 0 1395 562" fill="none" xmlns="http://www.w3.org/2000/svg">
<mask id="mask0" mask-type="alpha" maskUnits="userSpaceOnUse" x="0" y="0" width="1395" height="562">
<rect width="1395" height="562" fill="#72CCFF"/>
</mask>
<g mask="url(#mask0)">
<rect x="-112.986" y="-124.168" width="1939.34" height="719.063" fill="#72CCFF"/>
<line y1="-6" x2="384.937" y2="-6" transform="matrix(0.79315 -0.609026 0.669791 0.74255 -32.1382 234.437)" stroke="white" stroke-width="12"/>
<line y1="-6" x2="384.937" y2="-6" transform="matrix(0.79315 -0.609026 0.669791 0.74255 -45.6965 323.393)" stroke="white" stroke-width="12"/>
<line y1="-6" x2="384.937" y2="-6" transform="matrix(0.79315 -0.609026 0.669791 0.74255 155.167 281.232)" stroke="white" stroke-width="12"/>
<line y1="-6" x2="384.937" y2="-6" transform="matrix(0.79315 -0.609026 0.669791 0.74255 356.031 239.07)" stroke="white" stroke-width="12"/>
<line y1="-6" x2="384.937" y2="-6" transform="matrix(0.79315 -0.609026 0.669791 0.74255 556.895 196.908)" stroke="white" stroke-width="12"/>
<line y1="-6" x2="384.937" y2="-6" transform="matrix(0.79315 -0.609026 0.669791 0.74255 757.759 154.747)" stroke="white" stroke-width="12"/>
<line y1="-6" x2="384.937" y2="-6" transform="matrix(0.79315 -0.609026 0.669791 0.74255 958.623 112.585)" stroke="white" stroke-width="12"/>
<line y1="-6" x2="384.937" y2="-6" transform="matrix(0.79315 -0.609026 0.669791 0.74255 1159.49 70.4238)" stroke="white" stroke-width="12"/>
<line y1="-6" x2="384.937" y2="-6" transform="matrix(0.79315 -0.609026 0.669791 0.74255 1360.35 28.2621)" stroke="white" stroke-width="12"/>
<line y1="-6" x2="384.937" y2="-6" transform="matrix(0.79315 -0.609026 0.669791 0.74255 -198.353 532.348)" stroke="white" stroke-width="12"/>
<line y1="-6" x2="384.937" y2="-6" transform="matrix(0.79315 -0.609026 0.669791 0.74255 -8.53671 497.599)" stroke="white" stroke-width="12"/>
<line y1="-6" x2="384.937" y2="-6" transform="matrix(0.79315 -0.609026 0.669791 0.74255 181.28 462.851)" stroke="white" stroke-width="12"/>
<line y1="-6" x2="384.937" y2="-6" transform="matrix(0.79315 -0.609026 0.669791 0.74255 371.096 428.102)" stroke="white" stroke-width="12"/>
<line y1="-6" x2="384.937" y2="-6" transform="matrix(0.79315 -0.609026 0.669791 0.74255 -198.353 742.229)" stroke="white" stroke-width="12"/>
<line y1="-6" x2="384.937" y2="-6" transform="matrix(0.79315 -0.609026 0.669791 0.74255 28.6231 707.481)" stroke="white" stroke-width="12"/>
<line y1="-6" x2="384.937" y2="-6" transform="matrix(0.79315 -0.609026 0.669791 0.74255 255.599 672.732)" stroke="white" stroke-width="12"/>
<line y1="-6" x2="384.937" y2="-6" transform="matrix(0.79315 -0.609026 0.669791 0.74255 482.576 637.984)" stroke="white" stroke-width="12"/>
<line y1="-6" x2="384.937" y2="-6" transform="matrix(0.79315 -0.609026 0.669791 0.74255 596.064 595.822)" stroke="white" stroke-width="12"/>
<line y1="-6" x2="384.937" y2="-6" transform="matrix(0.79315 -0.609026 0.669791 0.74255 399.719 632.887)" stroke="white" stroke-width="12"/>
<line y1="-6" x2="384.937" y2="-6" transform="matrix(0.79315 -0.609026 0.669791 0.74255 327.91 307.641)" stroke="white" stroke-width="12"/>
<line y1="-6" x2="384.937" y2="-6" transform="matrix(0.79315 -0.609026 0.669791 0.74255 954.104 265.942)" stroke="white" stroke-width="12"/>
<line y1="-6" x2="384.937" y2="-6" transform="matrix(0.79315 -0.609026 0.669791 0.74255 709.552 553.66)" stroke="white" stroke-width="12"/>
<line y1="-6" x2="384.937" y2="-6" transform="matrix(0.79315 -0.609026 0.669791 0.74255 936.528 469.337)" stroke="white" stroke-width="12"/>
<line y1="-6" x2="384.937" y2="-6" transform="matrix(0.79315 -0.609026 0.669791 0.74255 1050.02 427.176)" stroke="white" stroke-width="12"/>
<line y1="-6" x2="384.937" y2="-6" transform="matrix(0.79315 -0.609026 0.669791 0.74255 709.552 603.235)" stroke="white" stroke-width="12"/>
<line y1="-6" x2="384.937" y2="-6" transform="matrix(0.79315 -0.609026 0.669791 0.74255 936.528 568.486)" stroke="white" stroke-width="12"/>
<line y1="-6" x2="384.937" y2="-6" transform="matrix(0.79315 -0.609026 0.669791 0.74255 838.607 715.357)" stroke="white" stroke-width="12"/>
<line y1="-6" x2="384.937" y2="-6" transform="matrix(0.79315 -0.609026 0.669791 0.74255 1180.58 451.268)" stroke="white" stroke-width="12"/>
<line y1="-6" x2="384.937" y2="-6" transform="matrix(0.79315 -0.609026 0.669791 0.74255 1163.5 533.738)" stroke="white" stroke-width="12"/>
<line y1="-6" x2="384.937" y2="-6" transform="matrix(0.79315 -0.609026 0.669791 0.74255 1111.28 688.021)" stroke="white" stroke-width="12"/>
<line y1="-6" x2="384.937" y2="-6" transform="matrix(0.79315 -0.609026 0.669791 0.74255 560.913 393.354)" stroke="white" stroke-width="12"/>
<line y1="-6" x2="384.937" y2="-6" transform="matrix(0.79315 -0.609026 0.669791 0.74255 296.776 541.614)" stroke="white" stroke-width="12"/>
<line y1="-6" x2="384.937" y2="-6" transform="matrix(0.79315 -0.609026 0.669791 0.74255 79.8434 592.115)" stroke="white" stroke-width="12"/>
<line y1="-6" x2="384.937" y2="-6" transform="matrix(0.79315 -0.609026 0.669791 0.74255 108.467 363.238)" stroke="white" stroke-width="12"/>
<line y1="-6" x2="384.937" y2="-6" transform="matrix(0.79315 -0.609026 0.669791 0.74255 173.245 206.638)" stroke="white" stroke-width="12"/>
<line y1="-6" x2="384.937" y2="-6" transform="matrix(0.79315 -0.609026 0.669791 0.74255 79.3412 78.7634)" stroke="white" stroke-width="12"/>
<line y1="-6" x2="384.937" y2="-6" transform="matrix(0.79315 -0.609026 0.669791 0.74255 -137.09 642.617)" stroke="white" stroke-width="12"/>
<line y1="-6" x2="384.937" y2="-6" transform="matrix(0.79315 -0.609026 0.669791 0.74255 750.729 358.605)" stroke="white" stroke-width="12"/>
<line y1="-6" x2="384.937" y2="-6" transform="matrix(0.79315 -0.609026 0.669791 0.74255 816.01 260.846)" stroke="white" stroke-width="12"/>
<line y1="-6" x2="384.937" y2="-6" transform="matrix(0.79315 -0.609026 0.669791 0.74255 774.833 79.2267)" stroke="white" stroke-width="12"/>
<line y1="-6" x2="384.937" y2="-6" transform="matrix(0.79315 -0.609026 0.669791 0.74255 940.545 323.857)" stroke="white" stroke-width="12"/>
<line y1="-6" x2="384.937" y2="-6" transform="matrix(0.79315 -0.609026 0.669791 0.74255 1130.36 289.108)" stroke="white" stroke-width="12"/>
</g>
</svg>
