<svg width="70" height="70" viewBox="0 0 70 70" fill="none" xmlns="http://www.w3.org/2000/svg">
<g clip-path="url(#clip0)">
<path d="M69.9996 34.9998C69.9996 15.67 54.3297 0 34.9998 0C15.67 0 0 15.67 0 34.9998V35.0002C0 54.33 15.67 70 34.9998 70C54.3297 70 69.9996 54.33 69.9996 35.0002V34.9998Z" fill="#455A64"/>
<path d="M35.0001 6.10352e-05C15.6697 6.10352e-05 0.000244141 15.6696 0.000244141 35C0.000244141 54.3305 15.6697 70 35.0001 70C54.3303 70 69.9998 54.3305 69.9998 35C69.9998 15.6696 54.3303 6.10352e-05 35.0001 6.10352e-05ZM46.6135 50.4676C46.063 51.0153 45.4858 51.5897 45.0175 52.0597C44.5954 52.4832 44.2976 53.0051 44.1467 53.571C43.9336 54.3701 43.7614 55.1772 43.4733 55.9521L41.0191 62.5639C39.0773 62.9874 37.0676 63.2258 35.0001 63.2258V59.3618C35.2385 57.5806 33.9218 54.2444 31.8063 52.1287C30.9596 51.282 30.484 50.1333 30.484 48.9349V44.4175C30.484 42.7749 29.5991 41.2647 28.161 40.4702C26.133 39.3481 23.2483 37.7801 21.2725 36.7854C19.6524 35.9695 18.1536 34.9309 16.8058 33.7158L16.6929 33.6141C15.7291 32.7441 14.8733 31.7614 14.1441 30.6871C12.8203 28.7438 10.6639 25.5472 9.26249 23.4698C12.1514 17.0484 17.3576 11.8916 23.8269 9.09017L27.2154 10.7851C28.717 11.5359 30.484 10.445 30.484 8.76558V7.1708C31.6116 6.98877 32.759 6.87303 33.9261 6.82928L37.9199 10.8232C38.8022 11.7053 38.8022 13.1349 37.9199 14.017L37.258 14.6775L35.7989 16.1367C35.3586 16.5771 35.3586 17.2926 35.7989 17.7329L36.4607 18.3948C36.901 18.8351 36.901 19.5507 36.4607 19.991L35.3316 21.12C35.1199 21.3316 34.8324 21.4504 34.5329 21.4502H33.2642C32.9706 21.4502 32.6884 21.5646 32.4767 21.7706L31.0767 23.1325C30.9051 23.2996 30.791 23.5169 30.7509 23.7531C30.7109 23.9893 30.7469 24.232 30.8537 24.4464L33.0539 28.8482C33.4293 29.599 32.8831 30.4825 32.0448 30.4825H31.2489C30.9765 30.4825 30.714 30.3837 30.5094 30.2059L29.1997 29.0684C28.9033 28.8113 28.5451 28.6357 28.1604 28.559C27.7756 28.4823 27.3775 28.5071 27.0051 28.6309L22.6062 30.0972C22.2703 30.2092 21.9782 30.424 21.7713 30.7112C21.5644 30.9985 21.4531 31.3436 21.4532 31.6976C21.4532 32.3369 21.8144 32.9198 22.386 33.2063L23.9497 33.9881C25.2778 34.6528 26.7426 34.9986 28.2273 34.9986C29.712 34.9986 31.4154 38.85 32.7434 39.5147H42.1636C43.362 39.5147 44.5093 39.9903 45.3574 40.837L47.2894 42.769C48.0968 43.5764 48.5501 44.6716 48.5497 45.8133C48.5494 46.6785 48.3782 47.5349 48.0461 48.3336C47.7139 49.1323 47.2271 49.8575 46.6135 50.4676ZM58.8509 37.5757C58.0337 37.3709 57.3211 36.8701 56.8538 36.1687L54.3163 32.3623C53.945 31.8062 53.7469 31.1526 53.7469 30.4839C53.7469 29.8152 53.945 29.1616 54.3163 28.6055L57.081 24.4591C57.4086 23.9694 57.8573 23.5714 58.3851 23.3089L60.217 22.393C62.1248 26.1922 63.2259 30.4655 63.2259 35C63.2259 36.2236 63.1213 37.4217 62.969 38.6043L58.8509 37.5757Z" fill="#55A6BA"/>
<path d="M40.131 34.5077L37.4262 29.6043C37.0527 28.9272 37.1961 27.938 37.7463 27.3948L55.6361 9.73358C56.1864 9.19037 56.9352 9.29886 57.3086 9.97588L60.0134 14.8794C60.3869 15.5564 60.2436 16.5456 59.6934 17.0888L41.8035 34.75C41.2533 35.2932 40.5045 35.1848 40.131 34.5077Z" fill="white"/>
<path d="M49.8653 42.6325L47.8367 38.9549C47.2765 37.9394 47.4915 36.4556 48.3168 35.6408L61.298 22.8255C62.1234 22.0107 63.2466 22.1734 63.8067 23.1889L65.8353 26.8665C66.3955 27.8821 66.1806 29.3659 65.3552 30.1807L52.374 42.996C51.5487 43.8108 50.4255 43.6481 49.8653 42.6325Z" fill="white"/>
<path d="M39.1224 62.9006H43.3224C44.4822 62.9006 45.4254 61.9604 45.4291 60.8006L45.5308 29.0502C45.5345 27.8904 44.5973 26.9502 43.4375 26.9502H39.2375C38.0777 26.9502 37.1345 27.8904 37.1308 29.0502L37.0291 60.8006C37.0254 61.9604 37.9626 62.9006 39.1224 62.9006Z" fill="white"/>
<path d="M30.9187 34.5077L33.6235 29.6043C33.9969 28.9272 33.8536 27.938 33.3034 27.3948L15.4135 9.73358C14.8633 9.19037 14.1145 9.29885 13.741 9.97588L11.0362 14.8794C10.6628 15.5564 10.8061 16.5456 11.3563 17.0888L29.2462 34.75C29.7964 35.2932 30.5452 35.1848 30.9187 34.5077Z" fill="white"/>
<path d="M21.1844 42.6325L23.213 38.9549C23.7732 37.9393 23.5582 36.4556 22.7329 35.6407L9.75168 22.8255C8.92633 22.0106 7.80312 22.1734 7.24294 23.1889L5.21434 26.8665C4.65415 27.8821 4.86912 29.3659 5.69447 30.1807L18.6756 42.996C19.501 43.8108 20.6242 43.648 21.1844 42.6325Z" fill="white"/>
<path d="M31.9272 62.9006H27.7272C26.5674 62.9006 25.6242 61.9604 25.6205 60.8006L25.5188 29.0502C25.5151 27.8904 26.4523 26.9502 27.6121 26.9502H31.812C32.9718 26.9502 33.9151 27.8904 33.9188 29.0502L34.0204 60.8006C34.0242 61.9604 33.087 62.9006 31.9272 62.9006Z" fill="white"/>
</g>
<defs>
<clipPath id="clip0">
<rect width="70" height="70" fill="white"/>
</clipPath>
</defs>
</svg>
