<svg width="138" height="20" viewBox="0 0 138 20" fill="none" xmlns="http://www.w3.org/2000/svg">
<line y1="10" x2="138" y2="10" stroke="white" stroke-width="4"/>
<circle cx="22" cy="10" r="7" fill="#002A5A"/>
<circle cx="48" cy="10" r="7" fill="#002A5A"/>
<circle cx="74" cy="10" r="7" fill="#002A5A"/>
<circle cx="100" cy="10" r="7" fill="#002A5A"/>
<circle cx="126" cy="10" r="7" fill="#267FE9"/>
<path d="M128 0C122.476 0 118 4.47581 118 10C118 15.5242 122.476 20 128 20C133.524 20 138 15.5242 138 10C138 4.47581 133.524 0 128 0ZM130.302 14.1169L126.746 11.5323C126.621 11.4395 126.548 11.2944 126.548 11.1411V4.35484C126.548 4.08871 126.766 3.87097 127.032 3.87097H128.968C129.234 3.87097 129.452 4.08871 129.452 4.35484V9.90726L132.012 11.7702C132.23 11.9274 132.274 12.2298 132.117 12.4476L130.98 14.0121C130.823 14.2258 130.52 14.2742 130.302 14.1169Z" fill="white"/>
</svg>
